# xmcd
#
# Track frame offsets:
#	150
#	11571
#	23123
#	35035
#	49142
#	59008
#	70016
#	83010
#	94740
#	109657
#	120382
#	134570
#	146702
#	159231
#	170736
#	183134
#
# Disc length: 2600 seconds
#
# Revision: 1
# Processed by: cddbd v1.5.1PL0 Copyright (c) Steve Scherf et al.
# Submitted via: audiograbber 1.83.01
#
DISCID=d70a2610
DTITLE=Verschiedene - The Country Club Collection Country Heartbreakers
DYEAR=2005
DGENRE=Country
TTITLE0=Patsy Cline - The heart you break may be your Own
TTITLE1=Kenny Rogers - Poem for a little Lady
TTITLE2=Willie Nelson - Happiness lives next Door
TTITLE3=Billie Jo Spears - Which way you goin' Billy
TTITLE4=Hank Locklin - Please help me I'm Falling
TTITLE5=Janie Fricke - Don't worry about me Baby
TTITLE6=Dolly Parton - Little Blossom
TTITLE7=Freddy Fender - I'm Leaving it up to you
TTITLE8=Lynn Anderson - We've Only just begun
TTITLE9=Carl Belew - Am i that easy to forget
TTITLE10=Margo Smith - It only Hurts for a little while
TTITLE11=Stonewall Jackson - I love you because
TTITLE12=Wanda Jackson - Crazy
TTITLE13=Skeeter Davis - Crying Time
TTITLE14=Glen Cambell - By the time i get to Phoenix
TTITLE15=Charley Pride - There goes my Everything
EXTD=
EXTT0=
EXTT1=
EXTT2=
EXTT3=
EXTT4=
EXTT5=
EXTT6=
EXTT7=
EXTT8=
EXTT9=
EXTT10=
EXTT11=
EXTT12=
EXTT13=
EXTT14=
EXTT15=
PLAYORDER=
